<mxfile host="app.diagrams.net" modified="2024-06-19T14:06:46.901Z" agent="Mozilla/5.0 (Windows NT 10.0; Win64; x64) AppleWebKit/537.36 (KHTML, like Gecko) Chrome/126.0.0.0 Safari/537.36" version="24.5.5" etag="gwpWpwO7cFOfF2iNTdMH" type="github">
  <diagram name="Page-1" id="_rhz1gs1ETpLeO_U0zBf">
    <mxGraphModel>
      <root>
        <mxCell id="0" />
        <mxCell id="1" parent="0" />
      </root>
    </mxGraphModel>
  </diagram>
</mxfile>
